<svg width="33" height="34" viewBox="0 0 33 34" fill="none" xmlns="http://www.w3.org/2000/svg">
<path d="M16.4998 24.3338L14.4373 26.3963C13.5255 27.3078 12.289 27.8198 10.9998 27.8198C9.7105 27.8198 8.47403 27.3078 7.56227 26.3963C6.65074 25.4845 6.13867 24.248 6.13867 22.9588C6.13867 21.6695 6.65074 20.433 7.56227 19.5213L11.6873 15.3963C12.599 14.4847 13.8355 13.9727 15.1248 13.9727C16.414 13.9727 17.6505 14.4847 18.5623 15.3963" stroke="black" stroke-width="3" stroke-linecap="round"/>
<path d="M16.4998 10.5837L18.5623 8.52125C19.474 7.60973 20.7105 7.09766 21.9998 7.09766C23.289 7.09766 24.5255 7.60973 25.4373 8.52125C26.3488 9.43301 26.8609 10.6695 26.8609 11.9587C26.8609 13.248 26.3488 14.4845 25.4373 15.3962L21.3123 19.5213C20.4005 20.4328 19.164 20.9448 17.8748 20.9448C16.5855 20.9448 15.349 20.4328 14.4373 19.5213" stroke="black" stroke-width="3" stroke-linecap="round"/>
</svg>
